<svg version="1.1" id="Layer_1" xmlns="http://www.w3.org/2000/svg" xmlns:xlink="http://www.w3.org/1999/xlink" x="0px" y="0px"
	 width="100%" viewBox="0 0 1366 768" enable-background="new 0 0 1366 768" xml:space="preserve">
<path fill="#000000" opacity="1.000000" stroke="none" 
	d="
M1274.000000,769.000000 
	C849.382935,769.000000 425.265869,769.000000 1.074406,769.000000 
	C1.074406,513.079590 1.074406,257.159088 1.074406,1.119313 
	C456.333313,1.119313 911.666626,1.119313 1366.994141,1.119313 
	C1366.994141,257.067719 1366.994141,513.033875 1366.991211,769.000000 
	C1336.158813,769.000000 1305.329468,769.000000 1274.000000,769.000000 
M501.911987,397.340332 
	C501.468140,400.481140 501.053162,403.626434 500.566803,406.760620 
	C500.359833,408.094452 500.003723,409.405151 499.715393,410.726349 
	C500.293274,411.089142 500.871124,411.451935 501.448975,411.814728 
	C508.569733,407.437683 516.460510,403.942078 522.667847,398.519440 
	C541.824341,381.784424 549.180115,360.335785 542.786316,335.634552 
	C537.080078,313.589355 522.809204,298.698181 500.624512,291.696136 
	C496.756622,290.475342 495.774872,291.324615 495.254425,295.247070 
	C494.186890,289.186798 489.974091,288.888733 485.708771,289.038788 
	C480.963837,289.205780 476.176392,289.345520 471.501160,290.087494 
	C458.585938,292.137238 447.804932,298.579834 438.392395,307.356323 
	C436.992004,308.662079 434.644409,311.053589 437.164001,313.907288 
	C436.974457,314.081482 436.784882,314.255707 435.945007,314.177582 
	C434.947876,314.197754 433.413544,313.803650 433.031952,314.298523 
	C422.802002,327.563538 419.156189,342.963593 421.289825,359.128937 
	C423.397369,375.096924 430.691467,388.867340 443.665558,399.290833 
	C451.302734,405.426605 459.553802,409.786896 469.563873,411.730225 
	C467.945953,408.548889 464.499481,406.142822 468.009125,401.657532 
	C468.459595,407.686096 472.323090,408.753387 476.169220,408.882812 
	C480.775726,409.037872 485.488647,408.751434 490.016083,407.907928 
	C497.043213,406.598694 499.496063,403.826111 500.941010,397.133911 
	C501.149017,396.943481 501.357025,396.753082 501.911987,397.340332 
M490.416565,417.016052 
	C496.514435,415.126160 497.107819,414.546631 497.524567,409.700653 
	C489.040619,414.285431 480.316864,415.123596 471.203552,411.826233 
	C472.125214,416.563934 480.383362,418.748566 490.416565,417.016052 
M490.718536,424.709656 
	C491.208282,423.924988 491.698059,423.140320 492.650360,421.614594 
	C489.776703,422.048553 487.736267,422.562836 485.685394,422.608368 
	C483.636627,422.653870 481.577454,422.230255 479.289703,421.987549 
	C483.099609,427.502716 484.770874,427.947052 490.718536,424.709656 
z"/>
<path fill="#FECD0B" opacity="1.000000" stroke="none" 
	d="
M437.745056,313.398346 
	C434.644409,311.053589 436.992004,308.662079 438.392395,307.356323 
	C447.804932,298.579834 458.585938,292.137238 471.501160,290.087494 
	C476.176392,289.345520 480.963837,289.205780 485.708771,289.038788 
	C489.974091,288.888733 494.186890,289.186798 495.254425,295.247070 
	C495.774872,291.324615 496.756622,290.475342 500.624512,291.696136 
	C522.809204,298.698181 537.080078,313.589355 542.786316,335.634552 
	C549.180115,360.335785 541.824341,381.784424 522.667847,398.519440 
	C516.460510,403.942078 508.569733,407.437683 501.448975,411.814728 
	C500.871124,411.451935 500.293274,411.089142 499.715393,410.726349 
	C500.003723,409.405151 500.359833,408.094452 500.566803,406.760620 
	C501.053162,403.626434 501.468140,400.481140 501.838409,396.815308 
	C501.745178,395.960999 501.725494,395.631714 501.960022,394.956787 
	C502.556915,392.218903 502.899628,389.826599 503.287262,387.120544 
	C504.382172,386.449860 505.813080,385.619781 507.197449,384.718170 
	C522.507690,374.746796 527.798218,357.976105 520.307373,341.750305 
	C514.221130,328.566956 504.208954,319.104156 490.945679,313.194641 
	C484.934998,310.516571 478.687256,310.196350 472.502960,312.586975 
	C455.857147,319.021820 448.159454,332.242859 446.770416,349.076660 
	C445.445038,365.139099 451.067932,378.724030 464.945160,388.437622 
	C465.528870,388.996674 465.996979,389.301147 466.710266,389.780029 
	C467.231720,389.906342 467.508026,389.858215 467.784302,389.810059 
	C467.545319,389.518860 467.306335,389.227631 467.008118,388.674255 
	C466.542297,388.066742 466.135681,387.721344 465.522827,387.107361 
	C464.759491,386.222168 464.187195,385.618530 463.647522,384.987000 
	C450.014313,369.032562 449.323242,346.698639 461.969666,330.883423 
	C471.182770,319.361694 482.843079,317.583038 494.766205,326.203827 
	C498.921783,329.208435 502.866638,332.620239 506.430115,336.307617 
	C520.231812,350.589325 519.689636,368.229614 504.952515,381.419373 
	C500.943085,385.007843 496.173401,387.746796 491.752625,390.875641 
	C491.806091,391.063446 491.859589,391.251221 491.913055,391.439026 
	C495.245026,390.312561 498.576996,389.186096 502.928436,387.714966 
	C501.800262,390.215271 501.088074,391.793671 500.093536,393.562134 
	C490.585449,399.571777 480.555695,400.086670 470.275116,397.840027 
	C467.866302,397.313629 464.276672,396.113251 467.651337,392.072144 
	C467.357300,391.718689 467.183044,391.625305 467.008789,391.531921 
	C467.267151,391.798126 467.525513,392.064301 467.360901,392.082214 
	C466.026093,393.352936 464.031006,395.293488 464.424438,396.304565 
	C465.284332,398.514435 467.143433,401.646942 468.974243,401.927948 
	C475.092133,402.867157 481.460571,403.441620 487.570374,402.739777 
	C491.955231,402.236023 496.080017,399.468262 500.320862,397.710541 
	C499.496063,403.826111 497.043213,406.598694 490.016083,407.907928 
	C485.488647,408.751434 480.775726,409.037872 476.169220,408.882812 
	C472.323090,408.753387 468.459595,407.686096 468.009125,401.657532 
	C464.499481,406.142822 467.945953,408.548889 469.563873,411.730225 
	C459.553802,409.786896 451.302734,405.426605 443.665558,399.290833 
	C430.691467,388.867340 423.397369,375.096924 421.289825,359.128937 
	C419.156189,342.963593 422.802002,327.563538 433.031952,314.298523 
	C433.413544,313.803650 434.947876,314.197754 436.507568,314.496887 
	C437.637482,314.875183 438.204834,314.934174 439.315369,315.049591 
	C438.536407,314.230469 438.140747,313.814392 437.745056,313.398346 
M471.155914,360.887909 
	C469.113892,369.081726 472.149017,376.791077 472.518250,384.754822 
	C473.097137,384.735260 473.676056,384.715698 474.254944,384.696136 
	C474.254944,377.377991 474.254944,370.059845 474.254944,362.646545 
	C477.255859,366.114899 479.268127,370.230042 482.497559,371.737274 
	C486.907776,373.795532 489.724640,369.547699 492.413574,365.159576 
	C493.609436,372.146301 494.629242,378.104584 495.649078,384.062897 
	C496.174438,377.214417 496.427246,370.534973 496.006256,363.898315 
	C495.893372,362.119293 493.726044,360.470551 492.501862,358.762024 
	C490.929291,360.109680 489.223297,361.333557 487.824005,362.841949 
	C486.580872,364.181976 485.677979,365.837677 484.624939,367.354065 
	C483.406189,365.838562 481.774353,364.497650 481.046356,362.774780 
	C478.883667,357.656830 475.975433,356.760986 471.155914,360.887909 
z"/>
<path fill="#FECD0B" opacity="1.000000" stroke="none" 
	d="
M490.006409,417.061859 
	C480.383362,418.748566 472.125214,416.563934 471.203552,411.826233 
	C480.316864,415.123596 489.040619,414.285431 497.524567,409.700653 
	C497.107819,414.546631 496.514435,415.126160 490.006409,417.061859 
z"/>
<path fill="#FECD0B" opacity="1.000000" stroke="none" 
	d="
M490.454956,424.920868 
	C484.770874,427.947052 483.099609,427.502716 479.289703,421.987549 
	C481.577454,422.230255 483.636627,422.653870 485.685394,422.608368 
	C487.736267,422.562836 489.776703,422.048553 492.650360,421.614594 
	C491.698059,423.140320 491.208282,423.924988 490.454956,424.920868 
z"/>
<path fill="#000000" opacity="1.000000" stroke="none" 
	d="
M464.829559,388.183075 
	C451.067932,378.724030 445.445038,365.139099 446.770416,349.076660 
	C448.159454,332.242859 455.857147,319.021820 472.502960,312.586975 
	C478.687256,310.196350 484.934998,310.516571 490.945679,313.194641 
	C504.208954,319.104156 514.221130,328.566956 520.307373,341.750305 
	C527.798218,357.976105 522.507690,374.746796 507.197449,384.718170 
	C505.813080,385.619781 504.382172,386.449860 503.287262,387.120544 
	C502.899628,389.826599 502.556915,392.218903 501.635010,394.469086 
	C500.829132,394.008667 500.602509,393.690338 500.375885,393.372040 
	C501.088074,391.793671 501.800262,390.215271 502.928436,387.714966 
	C498.576996,389.186096 495.245026,390.312561 491.913055,391.439026 
	C491.859589,391.251221 491.806091,391.063446 491.752625,390.875641 
	C496.173401,387.746796 500.943085,385.007843 504.952515,381.419373 
	C519.689636,368.229614 520.231812,350.589325 506.430115,336.307617 
	C502.866638,332.620239 498.921783,329.208435 494.766205,326.203827 
	C482.843079,317.583038 471.182770,319.361694 461.969666,330.883423 
	C449.323242,346.698639 450.014313,369.032562 463.647522,384.987000 
	C464.187195,385.618530 464.759491,386.222168 465.290497,387.301025 
	C465.119446,387.903168 464.974487,388.043121 464.829559,388.183075 
z"/>
<path fill="#000000" opacity="1.000000" stroke="none" 
	d="
M471.377502,360.560852 
	C475.975433,356.760986 478.883667,357.656830 481.046356,362.774780 
	C481.774353,364.497650 483.406189,365.838562 484.624939,367.354065 
	C485.677979,365.837677 486.580872,364.181976 487.824005,362.841949 
	C489.223297,361.333557 490.929291,360.109680 492.501862,358.762024 
	C493.726044,360.470551 495.893372,362.119293 496.006256,363.898315 
	C496.427246,370.534973 496.174438,377.214417 495.649078,384.062897 
	C494.629242,378.104584 493.609436,372.146301 492.413574,365.159576 
	C489.724640,369.547699 486.907776,373.795532 482.497559,371.737274 
	C479.268127,370.230042 477.255859,366.114899 474.254944,362.646545 
	C474.254944,370.059845 474.254944,377.377991 474.254944,384.696136 
	C473.676056,384.715698 473.097137,384.735260 472.518250,384.754822 
	C472.149017,376.791077 469.113892,369.081726 471.377502,360.560852 
z"/>
<path fill="#000000" opacity="1.000000" stroke="none" 
	d="
M467.771118,392.332245 
	C464.276672,396.113251 467.866302,397.313629 470.275116,397.840027 
	C480.555695,400.086670 490.585449,399.571777 500.093536,393.562134 
	C500.602509,393.690338 500.829132,394.008667 501.380798,394.814697 
	C501.725494,395.631714 501.745178,395.960999 501.664917,396.426514 
	C501.357025,396.753082 501.149017,396.943481 500.630920,397.422241 
	C496.080017,399.468262 491.955231,402.236023 487.570374,402.739777 
	C481.460571,403.441620 475.092133,402.867157 468.974243,401.927948 
	C467.143433,401.646942 465.284332,398.514435 464.424438,396.304565 
	C464.031006,395.293488 466.026093,393.352936 467.321960,392.063538 
	C467.705994,392.293152 467.771118,392.332245 467.771118,392.332245 
z"/>
<path fill="#000000" opacity="1.000000" stroke="none" 
	d="
M437.454529,313.652832 
	C438.140747,313.814392 438.536407,314.230469 439.315369,315.049591 
	C438.204834,314.934174 437.637482,314.875183 436.832733,314.623108 
	C436.784882,314.255707 436.974457,314.081482 437.454529,313.652832 
z"/>
<path fill="#000000" opacity="1.000000" stroke="none" 
	d="
M466.465088,389.605621 
	C465.996979,389.301147 465.528870,388.996674 464.945160,388.437622 
	C464.974487,388.043121 465.119446,387.903168 465.496735,387.569580 
	C466.135681,387.721344 466.542297,388.066742 466.851746,388.836304 
	C466.754578,389.260529 466.465088,389.605621 466.465088,389.605621 
z"/>
<path fill="#000000" opacity="1.000000" stroke="none" 
	d="
M466.910950,389.098480 
	C467.306335,389.227631 467.545319,389.518860 467.784302,389.810059 
	C467.508026,389.858215 467.231720,389.906342 466.710266,389.780029 
	C466.465088,389.605621 466.754578,389.260529 466.910950,389.098480 
z"/>
<path fill="#000000" opacity="1.000000" stroke="none" 
	d="
M467.744934,392.311829 
	C467.525513,392.064301 467.267151,391.798126 467.008789,391.531921 
	C467.183044,391.625305 467.357300,391.718689 467.651337,392.072144 
	C467.771118,392.332245 467.705994,392.293152 467.744934,392.311829 
z"/>
</svg>