<svg xmlns="http://www.w3.org/2000/svg" width="1366" height="768" viewBox="0 0 1366 768">
<g>
<path d="M 714.30 503.80 C711.42,502.41 708.92,497.04 709.71,493.94 C710.93,489.13 713.31,487.03 723.33,481.91 C748.95,468.82 760.21,457.98 764.06,442.68 C765.00,438.94 764.89,436.63 763.46,429.81 C760.75,416.96 760.69,416.17 762.03,412.94 C764.27,407.53 772.09,405.28 776.91,408.65 C778.21,409.56 781.02,414.02 783.15,418.57 C787.11,427.03 791.02,431.40 795.83,432.75 C797.30,433.16 807.50,433.50 818.50,433.50 C836.52,433.50 838.89,433.30 842.43,431.50 C852.48,426.39 850.30,422.34 825.48,399.99 C810.17,386.21 806.89,381.95 806.22,374.97 C805.12,363.51 809.77,356.30 822.23,350.15 C840.27,341.25 877.62,330.25 885.38,331.56 C890.61,332.45 894.00,335.91 894.00,340.37 C894.00,347.84 892.82,348.55 870.63,354.50 C851.78,359.56 829.03,367.33 827.94,369.09 C826.65,371.19 827.85,372.63 839.84,383.30 C846.25,389.00 859.38,401.28 869.02,410.59 C887.54,428.47 891.54,431.23 901.63,433.12 C909.93,434.68 938.02,433.68 944.66,431.60 C950.55,429.75 956.00,425.18 956.00,422.10 C956.00,421.09 956.05,420.48 955.78,420.27 C955.37,419.94 954.21,420.57 950.94,422.16 C948.17,423.50 943.87,424.47 939.50,424.74 C933.51,425.11 931.85,424.82 928.00,422.76 C925.53,421.43 922.15,418.43 920.50,416.09 C917.68,412.07 917.50,411.29 917.57,402.66 C917.69,388.74 923.08,376.88 932.02,370.87 C935.60,368.47 937.32,368.00 942.59,368.00 C950.33,368.00 952.77,368.89 958.03,373.65 C966.19,381.02 970.73,393.82 971.68,412.11 C972.20,422.19 972.00,424.62 970.16,430.61 C966.11,443.79 957.08,451.71 941.56,455.69 C931.36,458.31 899.82,458.31 892.33,455.70 C885.45,453.30 874.20,445.28 868.92,439.02 L 864.66 433.96 L 863.40 437.60 C860.42,446.29 851.46,452.96 839.37,455.50 C835.59,456.29 824.38,457.24 814.46,457.62 C794.93,458.35 791.26,457.81 785.32,453.38 L 782.14 451.00 L 778.55 458.46 C770.36,475.49 756.94,487.94 734.84,499.00 C722.75,505.05 718.80,505.98 714.30,503.80 ZM 556.71 513.92 C543.76,511.28 533.18,503.11 528.90,492.44 C526.80,487.21 526.51,484.89 526.51,473.00 C526.50,458.07 528.01,451.51 532.75,445.88 C536.17,441.83 539.43,440.66 543.54,442.01 C548.58,443.67 549.69,447.44 547.92,456.88 C545.92,467.62 546.22,480.46 548.61,485.46 C552.33,493.27 560.06,496.34 576.00,496.32 C585.25,496.31 587.63,495.92 595.97,493.04 C601.18,491.23 606.43,489.11 607.63,488.32 C609.89,486.84 611.44,484.11 610.54,483.21 C610.27,482.93 605.64,481.88 600.27,480.86 C589.60,478.84 586.43,477.14 583.70,471.93 C580.31,465.47 583.41,453.87 590.43,446.73 C594.29,442.80 602.64,438.11 609.50,436.00 C611.70,435.33 622.72,434.46 634.00,434.08 C656.78,433.32 659.69,432.57 662.03,426.92 C663.15,424.22 663.08,422.39 661.53,414.52 C659.50,404.21 659.89,401.02 663.62,397.29 C665.81,395.10 666.78,394.83 670.79,395.28 C678.11,396.10 681.39,401.64 682.67,415.33 C684.40,433.86 676.17,449.25 661.42,455.06 C655.88,457.25 653.91,457.42 630.50,457.72 C616.75,457.90 604.38,458.30 603.00,458.61 C600.68,459.12 600.63,459.26 602.28,460.46 C603.26,461.18 608.12,462.55 613.08,463.52 C618.04,464.48 623.54,466.23 625.30,467.40 C635.42,474.16 633.48,488.09 620.82,499.47 C614.77,504.91 609.23,507.91 598.31,511.65 C591.50,513.98 588.64,514.36 576.00,514.61 C568.03,514.76 559.35,514.45 556.71,513.92 ZM 520.43 359.43 C519.48,360.38 519.08,360.84 518.70,360.83 C518.34,360.81 518.00,360.35 517.21,359.46 C516.50,358.66 516.36,358.00 516.89,358.00 C518.49,358.00 518.74,354.66 517.33,352.00 C515.38,348.30 513.66,343.74 513.45,341.71 C513.25,339.75 510.77,337.46 507.25,335.99 C505.32,335.18 504.51,333.45 504.85,330.85 C504.90,330.49 503.80,329.92 502.43,329.57 C501.05,329.22 500.17,328.54 500.47,328.05 C500.77,327.56 500.35,326.56 499.54,325.83 C496.47,323.06 495.06,322.00 494.45,322.00 C494.10,322.00 492.73,321.14 491.40,320.10 C490.02,319.02 488.12,318.42 486.99,318.71 C485.88,319.00 485.00,318.74 485.00,318.12 C485.00,316.45 476.39,316.75 472.92,318.54 C471.19,319.44 470.22,320.55 470.62,321.20 C471.06,321.90 470.85,322.03 470.06,321.54 C468.47,320.56 463.85,322.96 464.70,324.32 C465.07,324.93 464.68,325.09 463.74,324.73 C462.86,324.39 461.61,324.77 460.95,325.56 C460.29,326.35 460.10,327.00 460.51,327.00 C460.93,327.00 460.04,327.96 458.55,329.14 C456.58,330.69 455.95,331.94 456.27,333.64 C456.52,334.94 456.34,336.00 455.86,336.00 C454.74,336.00 450.00,345.85 450.00,348.19 C450.00,349.18 450.56,350.01 451.25,350.03 C452.01,350.05 451.82,350.58 450.75,351.39 C449.79,352.12 449.00,353.27 449.00,353.94 C449.00,354.62 448.44,354.98 447.75,354.76 C445.77,354.10 445.58,348.78 447.49,347.38 C449.12,346.19 449.37,345.41 450.61,337.75 C450.95,335.69 451.56,334.00 451.99,334.00 C452.41,334.00 453.36,332.54 454.10,330.75 C455.29,327.86 465.41,316.57 466.91,316.46 C469.09,316.30 475.00,313.67 475.00,312.86 C475.00,312.28 475.93,312.17 477.25,312.61 C478.49,313.01 480.54,313.27 481.81,313.18 C483.08,313.09 485.33,313.62 486.81,314.37 C488.29,315.12 489.97,315.56 490.55,315.35 C491.12,315.14 492.47,315.78 493.55,316.76 C497.27,320.17 501.51,322.71 502.75,322.27 C503.44,322.03 504.31,322.66 504.70,323.66 C505.09,324.67 507.60,328.19 510.28,331.49 C515.91,338.44 518.33,342.65 517.48,344.03 C517.15,344.56 517.36,345.00 517.94,345.00 C518.52,345.00 519.00,346.30 519.00,347.89 C519.00,349.54 519.64,351.03 520.50,351.36 C522.49,352.12 522.44,357.42 520.43,359.43 ZM 678.27 380.56 C676.49,379.76 674.13,377.63 673.02,375.81 C665.93,364.16 680.13,352.03 690.36,361.01 C700.45,369.87 690.48,386.01 678.27,380.56 ZM 649.33 380.54 C637.89,375.57 641.54,358.00 654.00,358.00 C666.61,358.00 670.11,375.72 658.45,380.58 C654.33,382.31 653.38,382.30 649.33,380.54 ZM 931.71 350.98 C928.02,348.09 926.46,342.73 927.91,337.92 C930.86,328.07 945.02,327.20 949.48,336.61 C951.36,340.57 951.38,342.16 949.58,346.47 C946.98,352.68 937.05,355.19 931.71,350.98 ZM 584.59 534.92 C580.01,529.48 581.71,521.60 588.03,518.99 C596.39,515.53 604.76,524.77 600.58,532.85 C598.58,536.71 596.23,538.00 591.15,538.00 C587.94,538.00 586.68,537.41 584.59,534.92 ZM 561.75 536.92 C558.89,535.25 556.75,530.13 557.43,526.54 C559.10,517.64 571.51,515.28 575.55,523.09 C579.23,530.22 574.91,538.03 567.33,537.97 C565.22,537.95 562.71,537.48 561.75,536.92 ZM 948.75 403.40 C954.48,399.71 949.03,388.60 941.50,388.60 C933.25,388.60 929.81,401.00 937.02,404.75 C939.85,406.22 945.35,405.59 948.75,403.40 ZM 430.23 310.41 C426.78,308.46 421.74,304.64 419.03,301.93 C413.81,296.72 407.49,288.18 408.27,287.40 C408.68,286.99 417.32,294.50 433.37,309.21 C433.93,309.72 434.45,310.22 434.93,310.69 C433.44,309.77 432.00,309.71 432.00,310.85 C432.00,311.07 432.23,311.39 432.62,311.73 C431.85,311.32 431.04,310.88 430.23,310.41 ZM 556.74 372.82 C545.28,371.75 543.89,370.37 553.37,369.48 C561.27,368.74 574.50,369.47 579.65,370.93 L 582.50 371.73 L 579.00 372.32 C572.76,373.38 564.67,373.56 556.74,372.82 ZM 493.02 289.88 C491.96,284.58 491.13,273.12 491.63,268.00 C492.58,258.28 493.58,257.79 494.86,266.42 C496.15,275.12 496.02,287.64 494.98,291.58 C494.99,291.28 495.00,290.92 495.00,290.50 C495.00,289.12 494.55,288.00 494.00,288.00 C493.42,288.00 493.07,288.89 493.02,289.88 ZM 553.44 322.07 C558.45,316.97 563.92,313.80 571.90,311.35 C576.21,310.03 576.27,310.04 574.58,311.91 C572.40,314.32 557.81,323.26 552.50,325.45 L 548.50 327.10 ZM 405.79 417.30 C410.70,410.40 425.11,398.77 426.73,400.40 C427.68,401.34 412.72,415.38 408.06,417.92 L 403.62 420.34 ZM 395.13 358.10 C392.40,356.37 405.02,353.53 410.67,354.61 L 414.50 355.33 L 410.50 357.14 C406.31,359.03 397.47,359.59 395.13,358.10 ZM 534.11 412.48 C530.31,409.05 526.29,402.38 527.36,401.30 C528.23,400.44 538.58,411.30 539.23,413.75 C540.05,416.91 538.62,416.56 534.11,412.48 ZM 493.95 420.60 C493.38,421.71 493.02,422.63 493.02,423.06 C493.01,423.92 492.08,425.61 490.96,426.81 C488.39,429.57 483.74,429.75 480.49,427.42 C480.92,427.47 481.40,427.32 481.99,427.00 C483.02,426.45 485.00,426.00 486.38,426.00 C487.75,426.00 489.16,425.54 489.51,424.98 C489.86,424.42 490.56,424.23 491.07,424.54 C491.58,424.86 492.41,424.05 492.91,422.74 C493.10,422.22 493.48,421.46 493.95,420.60 ZM 485.00 400.00 C484.36,401.19 484.08,401.78 483.73,401.81 C483.40,401.85 483.02,401.38 482.20,400.45 C481.22,399.34 480.43,399.24 478.93,400.04 C477.42,400.85 476.59,400.73 475.40,399.55 C474.01,398.15 474.45,398.00 479.96,398.00 C485.76,398.00 486.02,398.10 485.00,400.00 ZM 513.13 377.25 C512.91,378.54 510.96,378.07 510.39,376.58 C509.73,374.86 511.76,370.74 512.91,371.45 C513.60,371.87 513.68,373.99 513.13,377.25 ZM 486.50 419.01 C486.50,420.63 482.52,421.65 481.66,420.26 C481.37,419.79 481.49,418.82 481.94,418.10 C482.99,416.40 486.50,417.10 486.50,419.01 ZM 477.53 423.92 C477.20,423.27 477.00,422.68 477.00,422.25 C477.00,421.05 476.44,419.88 475.62,419.07 C476.43,419.84 477.00,420.93 477.00,421.98 C477.00,422.45 477.21,423.17 477.53,423.92 ZM 437.56 313.71 C437.62,313.86 437.60,313.94 437.50,313.94 C437.43,313.94 437.30,313.92 437.13,313.86 C437.37,313.88 437.52,313.83 437.56,313.71 ZM 494.22 292.81 C494.09,292.80 493.95,292.69 493.81,292.47 C493.96,292.62 494.10,292.73 494.22,292.81 Z" fill="rgba(0,0,0,1)"/>
<path d="M 478.56 425.78 C477.70,424.56 477.00,422.85 477.00,421.98 C477.00,420.05 475.07,418.00 473.26,418.00 C471.05,418.00 467.69,414.26 468.35,412.54 C468.68,411.67 468.10,409.56 467.05,407.85 C465.64,405.52 465.39,404.11 466.06,402.34 C466.76,400.50 466.52,399.52 464.98,397.98 C462.64,395.64 462.50,394.07 464.41,391.45 C465.70,389.68 465.34,389.09 459.93,384.20 C445.27,370.94 441.38,348.99 450.50,330.99 C456.50,319.17 469.03,310.00 479.22,310.00 C497.44,310.00 520.30,332.18 522.59,352.09 C523.88,363.22 518.19,375.03 508.08,382.24 C502.73,386.06 502.10,386.87 502.05,390.08 C502.02,392.05 501.68,393.99 501.29,394.38 C500.90,394.77 500.71,396.85 500.87,399.02 C501.03,401.34 500.53,403.84 499.63,405.12 C498.75,406.37 498.33,408.39 498.63,409.90 C498.99,411.69 498.32,413.72 496.48,416.43 C495.01,418.60 493.40,421.44 492.91,422.74 C492.41,424.05 491.58,424.86 491.07,424.54 C490.56,424.23 489.86,424.42 489.51,424.98 C489.18,425.51 487.90,425.95 486.59,426.00 C488.18,425.80 489.55,424.83 490.44,423.11 L 491.93 420.23 L 488.22 421.09 C486.17,421.56 482.92,421.71 481.00,421.41 L 477.50 420.87 L 480.31 423.43 C482.12,425.09 484.01,425.96 485.70,426.03 C484.41,426.14 482.87,426.54 481.99,427.00 C480.51,427.80 479.79,427.54 478.56,425.78 ZM 470.12 397.00 C482.61,399.95 499.89,395.45 500.84,389.01 C501.12,387.13 500.85,386.85 499.34,387.47 C494.38,389.48 488.85,391.18 488.47,390.81 C488.24,390.58 490.52,389.14 493.53,387.62 C500.56,384.06 509.19,376.17 511.99,370.74 C513.39,368.04 514.38,363.86 514.72,359.24 C515.22,352.56 515.01,351.47 512.15,345.65 C508.07,337.37 502.67,331.35 493.98,325.42 C487.74,321.15 486.20,320.55 480.71,320.23 C475.11,319.90 473.96,320.19 469.04,323.18 C459.39,329.05 453.40,339.79 452.28,353.26 C451.24,365.60 457.23,380.06 466.60,387.85 C468.75,389.63 469.75,390.81 468.83,390.47 C466.83,389.73 464.73,392.95 465.94,394.90 C466.38,395.62 468.26,396.56 470.12,397.00 ZM 520.43 359.43 C522.44,357.42 522.49,352.12 520.50,351.36 C519.64,351.03 519.00,349.54 519.00,347.89 C519.00,346.30 518.52,345.00 517.94,345.00 C517.36,345.00 517.15,344.56 517.48,344.03 C518.33,342.65 515.91,338.44 510.28,331.49 C507.60,328.19 505.09,324.67 504.70,323.66 C504.31,322.66 503.44,322.03 502.75,322.27 C501.51,322.71 497.27,320.17 493.55,316.76 C492.47,315.78 491.12,315.14 490.55,315.35 C489.97,315.56 488.29,315.12 486.81,314.37 C485.33,313.62 483.08,313.09 481.81,313.18 C480.54,313.27 478.49,313.01 477.25,312.61 C475.93,312.17 475.00,312.28 475.00,312.86 C475.00,313.67 469.09,316.30 466.91,316.46 C465.41,316.57 455.29,327.86 454.10,330.75 C453.36,332.54 452.41,334.00 451.99,334.00 C451.56,334.00 450.95,335.69 450.61,337.75 C449.37,345.41 449.12,346.19 447.49,347.38 C445.58,348.78 445.77,354.10 447.75,354.76 C448.44,354.98 449.00,354.62 449.00,353.94 C449.00,353.27 449.79,352.12 450.75,351.39 C451.82,350.58 452.01,350.05 451.25,350.03 C450.56,350.01 450.00,349.18 450.00,348.19 C450.00,345.85 454.74,336.00 455.86,336.00 C456.34,336.00 456.52,334.94 456.27,333.64 C455.95,331.94 456.58,330.69 458.55,329.14 C460.04,327.96 460.93,327.00 460.51,327.00 C460.10,327.00 460.29,326.35 460.95,325.56 C461.61,324.77 462.86,324.39 463.74,324.73 C464.68,325.09 465.07,324.93 464.70,324.32 C463.85,322.96 468.47,320.56 470.06,321.54 C470.85,322.03 471.06,321.90 470.62,321.20 C470.22,320.55 471.19,319.44 472.92,318.54 C476.39,316.75 485.00,316.45 485.00,318.12 C485.00,318.74 485.88,319.00 486.99,318.71 C488.12,318.42 490.02,319.02 491.40,320.10 C492.73,321.14 494.10,322.00 494.45,322.00 C495.06,322.00 496.47,323.06 499.54,325.83 C500.35,326.56 500.77,327.56 500.47,328.05 C500.17,328.54 501.05,329.22 502.43,329.57 C503.80,329.92 504.90,330.49 504.85,330.85 C504.51,333.45 505.32,335.18 507.25,335.99 C510.77,337.46 513.25,339.75 513.45,341.71 C513.66,343.74 515.38,348.30 517.33,352.00 C518.74,354.66 518.49,358.00 516.89,358.00 C516.36,358.00 516.50,358.66 517.21,359.46 C518.00,360.35 518.34,360.81 518.70,360.83 C519.08,360.84 519.48,360.38 520.43,359.43 ZM 474.54 361.32 C473.92,361.52 473.30,367.15 473.00,375.08 L 472.50 388.50 L 471.16 379.83 C470.42,375.06 470.11,370.22 470.48,369.08 C470.86,367.86 470.69,367.00 470.07,367.00 C469.48,367.00 469.00,365.65 469.00,364.00 C469.00,362.35 469.52,361.00 470.17,361.00 C470.81,361.00 471.04,360.70 470.68,360.34 C469.57,359.24 472.11,357.00 474.47,357.00 C477.26,357.00 479.58,359.58 480.44,363.64 C480.99,366.21 481.49,366.68 483.20,366.24 C484.43,365.91 485.90,364.13 486.79,361.85 C488.04,358.66 488.79,358.00 491.09,358.00 C492.63,358.00 494.15,358.44 494.48,358.97 C494.82,359.51 495.34,365.42 495.66,372.11 C496.36,386.84 494.85,387.50 492.97,373.30 C491.93,365.40 491.48,363.91 490.59,365.44 C488.23,369.52 485.90,371.12 482.79,370.81 C479.39,370.47 476.01,366.82 475.74,363.19 C475.65,361.97 475.11,361.13 474.54,361.32 ZM 470.84 406.93 C472.30,407.50 477.12,407.81 481.55,407.61 C491.11,407.18 497.60,404.45 498.60,400.44 C499.45,397.08 498.67,396.51 495.82,398.38 C494.53,399.23 490.59,400.66 487.08,401.56 C481.71,402.93 479.72,403.01 474.72,402.02 C471.14,401.32 468.39,401.21 467.84,401.76 C466.41,403.19 467.92,405.79 470.84,406.93 ZM 480.00 416.35 C484.55,417.04 485.08,417.01 489.62,415.86 C492.43,415.16 494.72,413.83 495.70,412.33 C497.83,409.08 497.02,408.67 492.40,410.64 C488.25,412.41 477.34,413.02 472.75,411.73 C470.64,411.14 470.00,411.31 470.00,412.44 C470.00,413.84 474.17,415.47 480.00,416.35 ZM 485.00 400.00 C486.02,398.10 485.76,398.00 479.96,398.00 C474.45,398.00 474.01,398.15 475.40,399.55 C476.59,400.73 477.42,400.85 478.93,400.04 C480.43,399.24 481.22,399.34 482.20,400.45 C483.02,401.38 483.40,401.85 483.73,401.81 C484.08,401.78 484.36,401.19 485.00,400.00 ZM 513.13 377.25 C513.68,373.99 513.60,371.87 512.91,371.45 C511.76,370.74 509.73,374.86 510.39,376.58 C510.96,378.07 512.91,378.54 513.13,377.25 ZM 486.50 419.01 C486.50,417.10 482.99,416.40 481.94,418.10 C481.49,418.82 481.37,419.79 481.66,420.26 C482.52,421.65 486.50,420.63 486.50,419.01 ZM 434.25 312.78 C433.01,312.18 432.00,311.31 432.00,310.85 C432.00,309.29 434.67,309.98 436.50,312.00 C438.48,314.19 437.72,314.45 434.25,312.78 ZM 493.67 292.33 C492.63,291.30 492.88,288.00 494.00,288.00 C494.55,288.00 495.00,289.12 495.00,290.50 C495.00,293.12 494.77,293.44 493.67,292.33 Z" fill="rgba(1,1,0,1)"/>
<path d="M 470.12 397.00 C468.26,396.56 466.38,395.62 465.94,394.90 C464.73,392.95 466.83,389.73 468.83,390.47 C469.75,390.81 468.75,389.63 466.60,387.85 C457.23,380.06 451.24,365.60 452.28,353.26 C453.40,339.79 459.39,329.05 469.04,323.18 C473.96,320.19 475.11,319.90 480.71,320.23 C486.20,320.55 487.74,321.15 493.98,325.42 C500.20,329.67 504.74,333.96 508.31,339.10 C508.30,339.09 508.30,339.08 508.29,339.07 C506.46,336.84 506.03,336.74 503.24,337.90 C496.97,340.50 489.23,349.52 487.67,356.05 C487.19,358.06 487.23,358.47 489.14,358.33 C488.20,358.78 487.60,359.79 486.79,361.85 C485.90,364.13 484.43,365.91 483.20,366.24 C481.49,366.68 480.99,366.21 480.44,363.64 C479.58,359.58 477.26,357.00 474.47,357.00 C472.11,357.00 469.57,359.24 470.68,360.34 C471.04,360.70 470.81,361.00 470.17,361.00 C469.52,361.00 469.00,362.35 469.00,364.00 C469.00,365.65 469.48,367.00 470.07,367.00 C470.69,367.00 470.86,367.86 470.48,369.08 C470.11,370.22 470.42,375.06 471.16,379.83 L 472.50 388.50 L 473.00 375.08 C473.30,367.15 473.92,361.52 474.54,361.32 C475.11,361.13 475.65,361.97 475.74,363.19 C476.01,366.82 479.39,370.47 482.79,370.81 C485.15,371.04 487.05,370.18 488.86,367.98 C486.88,371.65 487.37,373.65 491.32,379.99 C493.13,382.91 493.54,383.16 493.75,381.50 C493.84,380.83 493.70,378.89 493.42,376.47 C495.08,387.30 496.30,385.64 495.66,372.11 C495.40,366.60 495.00,361.62 494.68,359.73 C495.28,362.57 495.83,370.80 495.92,379.25 C495.96,382.45 496.27,385.15 496.64,385.83 C495.59,386.50 494.54,387.10 493.53,387.62 C490.52,389.14 488.24,390.58 488.47,390.81 C488.85,391.18 494.38,389.48 499.34,387.47 C500.85,386.85 501.12,387.13 500.84,389.01 C499.89,395.45 482.61,399.95 470.12,397.00 ZM 463.53 380.90 C465.59,383.18 467.41,384.93 467.56,384.77 C467.72,384.62 466.98,380.89 465.92,376.50 C462.25,361.22 463.85,340.92 469.61,329.79 C470.46,328.15 470.92,326.59 470.65,326.32 C469.39,325.06 460.71,334.83 457.75,340.86 C454.81,346.83 454.50,348.32 454.50,356.48 C454.50,364.14 454.90,366.35 457.14,371.12 C458.58,374.21 461.46,378.61 463.53,380.90 ZM 470.84 406.93 C467.92,405.79 466.41,403.19 467.84,401.76 C468.39,401.21 471.14,401.32 474.72,402.02 C479.72,403.01 481.71,402.93 487.08,401.56 C490.59,400.66 494.53,399.23 495.82,398.38 C498.67,396.51 499.45,397.08 498.60,400.44 C497.60,404.45 491.11,407.18 481.55,407.61 C477.12,407.81 472.30,407.50 470.84,406.93 ZM 480.00 416.35 C474.17,415.47 470.00,413.84 470.00,412.44 C470.00,411.31 470.64,411.14 472.75,411.73 C477.34,413.02 488.25,412.41 492.40,410.64 C497.02,408.67 497.83,409.08 495.70,412.33 C494.72,413.83 492.43,415.16 489.62,415.86 C485.08,417.01 484.55,417.04 480.00,416.35 ZM 480.31 423.43 L 477.50 420.87 L 481.00 421.41 C482.92,421.71 486.17,421.56 488.22,421.09 L 491.93 420.23 L 490.44 423.11 C488.49,426.89 484.23,427.02 480.31,423.43 ZM 469.20 395.80 C470.68,397.28 473.66,397.36 474.53,395.96 C475.51,394.36 473.04,392.00 470.38,392.00 C467.82,392.00 467.25,393.85 469.20,395.80 ZM 471.67 406.33 C472.53,407.19 476.47,407.20 477.32,406.34 C478.46,405.20 475.86,403.00 473.38,403.00 C471.14,403.00 470.19,404.85 471.67,406.33 ZM 475.22 325.15 C477.14,326.38 477.83,326.19 478.93,324.13 C480.07,322.00 479.43,321.00 476.94,321.00 C474.77,321.00 473.50,324.06 475.22,325.15 ZM 511.91 370.90 C510.46,373.62 507.59,376.93 504.21,380.00 C507.48,376.73 510.79,372.94 511.91,370.90 ZM 513.55 348.61 C515.00,351.96 515.11,353.71 514.78,358.53 C515.09,353.81 514.89,351.86 513.55,348.61 ZM 493.02 358.23 C493.71,358.34 494.22,358.54 494.38,358.81 C494.40,358.84 494.42,358.87 494.43,358.90 C494.21,358.63 493.68,358.39 493.02,358.23 ZM 492.23 368.19 C492.33,368.79 492.44,369.48 492.56,370.28 L 492.23 368.19 ZM 513.62 366.24 C513.20,367.89 512.68,369.35 512.09,370.54 C512.68,369.34 513.20,367.88 513.62,366.24 Z" fill="rgba(255,206,11,1)"/>
<path d="M 471.67 406.33 C470.19,404.85 471.14,403.00 473.38,403.00 C475.86,403.00 478.46,405.20 477.32,406.34 C476.47,407.20 472.53,407.19 471.67,406.33 ZM 469.20 395.80 C467.25,393.85 467.82,392.00 470.38,392.00 C473.04,392.00 475.51,394.36 474.53,395.96 C473.66,397.36 470.68,397.28 469.20,395.80 ZM 495.92 379.25 C495.81,369.46 495.10,359.97 494.38,358.81 C494.04,358.26 492.26,357.98 490.41,358.20 C487.27,358.57 487.10,358.44 487.67,356.05 C489.23,349.52 496.97,340.50 503.24,337.90 C506.03,336.74 506.46,336.84 508.29,339.07 C509.39,340.41 511.41,343.91 512.77,346.86 C514.91,351.50 515.18,353.19 514.72,359.36 C514.38,363.88 513.37,368.07 511.98,370.77 C509.94,374.72 498.72,386.00 496.83,386.00 C496.37,386.00 495.97,382.96 495.92,379.25 ZM 463.53 380.90 C461.46,378.61 458.58,374.21 457.14,371.12 C454.90,366.35 454.50,364.14 454.50,356.48 C454.50,348.32 454.81,346.83 457.75,340.86 C460.71,334.83 469.39,325.06 470.65,326.32 C470.92,326.59 470.46,328.15 469.61,329.79 C463.85,340.92 462.25,361.22 465.92,376.50 C466.98,380.89 467.72,384.62 467.56,384.77 C467.41,384.93 465.59,383.18 463.53,380.90 ZM 491.32 379.99 C487.12,373.25 486.83,371.41 489.27,367.26 L 491.49 363.50 L 492.75 371.50 C493.44,375.90 493.89,380.40 493.75,381.50 C493.54,383.16 493.13,382.91 491.32,379.99 ZM 475.22 325.15 C473.50,324.06 474.77,321.00 476.94,321.00 C479.43,321.00 480.07,322.00 478.93,324.13 C477.83,326.19 477.14,326.38 475.22,325.15 Z" fill="rgba(255,228,111,1)"/>
</g>
</svg>